<mxfile host="app.diagrams.net" modified="2023-09-11T00:43:37.350Z" agent="Mozilla/5.0 (Windows NT 10.0; Win64; x64) AppleWebKit/537.36 (KHTML, like Gecko) Chrome/116.0.0.0 Safari/537.36" etag="c8q5ouwEGNFF8LVLes3T" version="21.7.2" type="github">
  <diagram name="Página-1" id="k03zikPJMviWccvUhyAK">
    <mxGraphModel dx="1050" dy="1748" grid="1" gridSize="10" guides="1" tooltips="1" connect="1" arrows="1" fold="1" page="1" pageScale="1" pageWidth="827" pageHeight="1169" math="0" shadow="0">
      <root>
        <mxCell id="0" />
        <mxCell id="1" parent="0" />
        <mxCell id="4f5sG9eF8hFG8ZeCB6Mk-9" value="" style="rounded=0;whiteSpace=wrap;html=1;" vertex="1" parent="1">
          <mxGeometry x="117" y="-50" width="710" height="1110" as="geometry" />
        </mxCell>
        <mxCell id="4f5sG9eF8hFG8ZeCB6Mk-1" value="ONG" style="shape=umlActor;verticalLabelPosition=bottom;verticalAlign=top;html=1;outlineConnect=0;" vertex="1" parent="1">
          <mxGeometry x="50" y="100" width="30" height="60" as="geometry" />
        </mxCell>
        <mxCell id="4f5sG9eF8hFG8ZeCB6Mk-5" value="Voluntário" style="shape=umlActor;verticalLabelPosition=bottom;verticalAlign=top;html=1;outlineConnect=0;" vertex="1" parent="1">
          <mxGeometry x="30" y="400" width="30" height="60" as="geometry" />
        </mxCell>
        <mxCell id="4f5sG9eF8hFG8ZeCB6Mk-11" value="Cidadão" style="shape=umlActor;verticalLabelPosition=bottom;verticalAlign=top;html=1;outlineConnect=0;" vertex="1" parent="1">
          <mxGeometry x="860" y="165" width="30" height="60" as="geometry" />
        </mxCell>
        <mxCell id="4f5sG9eF8hFG8ZeCB6Mk-15" value="(Rede + Social)²" style="shape=umlActor;verticalLabelPosition=bottom;verticalAlign=top;html=1;outlineConnect=0;align=left;" vertex="1" parent="1">
          <mxGeometry x="880" y="390" width="30" height="60" as="geometry" />
        </mxCell>
        <mxCell id="4f5sG9eF8hFG8ZeCB6Mk-19" style="orthogonalLoop=1;jettySize=auto;html=1;endArrow=block;endFill=1;rounded=0;strokeColor=default;shadow=0;" edge="1" parent="1" target="4f5sG9eF8hFG8ZeCB6Mk-20" source="4f5sG9eF8hFG8ZeCB6Mk-1">
          <mxGeometry relative="1" as="geometry">
            <mxPoint x="160" y="201" as="sourcePoint" />
          </mxGeometry>
        </mxCell>
        <mxCell id="4f5sG9eF8hFG8ZeCB6Mk-20" value="Especifica perfil do Voluntário" style="ellipse;whiteSpace=wrap;html=1;" vertex="1" parent="1">
          <mxGeometry x="160" y="230" width="120" height="80" as="geometry" />
        </mxCell>
        <mxCell id="4f5sG9eF8hFG8ZeCB6Mk-21" style="orthogonalLoop=1;jettySize=auto;html=1;endArrow=block;endFill=1;rounded=0;strokeColor=default;shadow=0;" edge="1" parent="1" target="4f5sG9eF8hFG8ZeCB6Mk-109" source="4f5sG9eF8hFG8ZeCB6Mk-1">
          <mxGeometry relative="1" as="geometry">
            <mxPoint x="160" y="291" as="sourcePoint" />
          </mxGeometry>
        </mxCell>
        <mxCell id="4f5sG9eF8hFG8ZeCB6Mk-22" value="Solicita Afiliação" style="ellipse;whiteSpace=wrap;html=1;" vertex="1" parent="1">
          <mxGeometry x="180" y="600" width="120" height="80" as="geometry" />
        </mxCell>
        <mxCell id="4f5sG9eF8hFG8ZeCB6Mk-23" style="orthogonalLoop=1;jettySize=auto;html=1;endArrow=block;endFill=1;rounded=0;strokeColor=default;shadow=0;edgeStyle=orthogonalEdgeStyle;startArrow=none;startFill=0;" edge="1" parent="1" target="4f5sG9eF8hFG8ZeCB6Mk-24" source="4f5sG9eF8hFG8ZeCB6Mk-1">
          <mxGeometry relative="1" as="geometry">
            <mxPoint x="180" y="91" as="sourcePoint" />
            <Array as="points">
              <mxPoint x="10" y="130" />
              <mxPoint x="10" y="780" />
            </Array>
          </mxGeometry>
        </mxCell>
        <mxCell id="4f5sG9eF8hFG8ZeCB6Mk-24" value="Abrir Campanha Solidária" style="ellipse;whiteSpace=wrap;html=1;" vertex="1" parent="1">
          <mxGeometry x="150" y="750" width="120" height="80" as="geometry" />
        </mxCell>
        <mxCell id="4f5sG9eF8hFG8ZeCB6Mk-27" value="&amp;lt;&amp;lt;include&amp;gt;&amp;gt;" style="rounded=0;orthogonalLoop=1;jettySize=auto;html=1;dashed=1;endArrow=none;endFill=0;startArrow=open;startFill=0;" edge="1" parent="1" source="4f5sG9eF8hFG8ZeCB6Mk-26" target="4f5sG9eF8hFG8ZeCB6Mk-22">
          <mxGeometry relative="1" as="geometry" />
        </mxCell>
        <mxCell id="4f5sG9eF8hFG8ZeCB6Mk-110" style="rounded=0;orthogonalLoop=1;jettySize=auto;html=1;" edge="1" parent="1" source="4f5sG9eF8hFG8ZeCB6Mk-26" target="4f5sG9eF8hFG8ZeCB6Mk-20">
          <mxGeometry relative="1" as="geometry" />
        </mxCell>
        <mxCell id="4f5sG9eF8hFG8ZeCB6Mk-26" value="Avalia Afiliação" style="ellipse;whiteSpace=wrap;html=1;" vertex="1" parent="1">
          <mxGeometry x="430" y="560" width="120" height="80" as="geometry" />
        </mxCell>
        <mxCell id="4f5sG9eF8hFG8ZeCB6Mk-28" style="orthogonalLoop=1;jettySize=auto;html=1;endArrow=block;endFill=1;rounded=0;strokeColor=default;shadow=0;" edge="1" parent="1" target="4f5sG9eF8hFG8ZeCB6Mk-29" source="4f5sG9eF8hFG8ZeCB6Mk-22">
          <mxGeometry relative="1" as="geometry">
            <mxPoint x="226.08609333705976" y="539.7936872038517" as="sourcePoint" />
          </mxGeometry>
        </mxCell>
        <mxCell id="4f5sG9eF8hFG8ZeCB6Mk-29" value="Aceite de Recomendação de ONG" style="ellipse;whiteSpace=wrap;html=1;" vertex="1" parent="1">
          <mxGeometry x="180" y="480" width="120" height="80" as="geometry" />
        </mxCell>
        <mxCell id="4f5sG9eF8hFG8ZeCB6Mk-33" value="&amp;lt;&amp;lt;extend&amp;gt;&amp;gt;" style="rounded=0;orthogonalLoop=1;jettySize=auto;html=1;dashed=1;endArrow=none;endFill=0;startArrow=open;startFill=0;" edge="1" parent="1" source="4f5sG9eF8hFG8ZeCB6Mk-34" target="4f5sG9eF8hFG8ZeCB6Mk-26">
          <mxGeometry relative="1" as="geometry">
            <mxPoint x="542" y="425" as="targetPoint" />
          </mxGeometry>
        </mxCell>
        <mxCell id="4f5sG9eF8hFG8ZeCB6Mk-34" value="Especifica perfil da ONG" style="ellipse;whiteSpace=wrap;html=1;" vertex="1" parent="1">
          <mxGeometry x="510" y="410" width="120" height="80" as="geometry" />
        </mxCell>
        <mxCell id="4f5sG9eF8hFG8ZeCB6Mk-40" value="&amp;lt;&amp;lt;include&amp;gt;&amp;gt;" style="rounded=0;orthogonalLoop=1;jettySize=auto;html=1;dashed=1;endArrow=none;endFill=0;startArrow=open;startFill=0;" edge="1" parent="1" source="4f5sG9eF8hFG8ZeCB6Mk-41" target="4f5sG9eF8hFG8ZeCB6Mk-20">
          <mxGeometry relative="1" as="geometry">
            <mxPoint x="596.8521285665818" y="445.01219809782333" as="targetPoint" />
          </mxGeometry>
        </mxCell>
        <mxCell id="4f5sG9eF8hFG8ZeCB6Mk-41" value="Recomenda ONG Parceira" style="ellipse;whiteSpace=wrap;html=1;" vertex="1" parent="1">
          <mxGeometry x="150" y="350" width="120" height="80" as="geometry" />
        </mxCell>
        <mxCell id="4f5sG9eF8hFG8ZeCB6Mk-44" style="orthogonalLoop=1;jettySize=auto;html=1;endArrow=block;endFill=1;rounded=0;strokeColor=default;shadow=0;" edge="1" parent="1" target="4f5sG9eF8hFG8ZeCB6Mk-45" source="4f5sG9eF8hFG8ZeCB6Mk-15">
          <mxGeometry relative="1" as="geometry">
            <mxPoint x="860" y="407.75862068965523" as="sourcePoint" />
          </mxGeometry>
        </mxCell>
        <mxCell id="4f5sG9eF8hFG8ZeCB6Mk-45" value="Busca Voluntários" style="ellipse;whiteSpace=wrap;html=1;" vertex="1" parent="1">
          <mxGeometry x="680" y="570" width="120" height="80" as="geometry" />
        </mxCell>
        <mxCell id="4f5sG9eF8hFG8ZeCB6Mk-46" style="orthogonalLoop=1;jettySize=auto;html=1;endArrow=block;endFill=1;rounded=0;strokeColor=default;shadow=0;" edge="1" parent="1" target="4f5sG9eF8hFG8ZeCB6Mk-47" source="4f5sG9eF8hFG8ZeCB6Mk-45">
          <mxGeometry relative="1" as="geometry">
            <mxPoint x="860" y="415.5882352941177" as="sourcePoint" />
          </mxGeometry>
        </mxCell>
        <mxCell id="4f5sG9eF8hFG8ZeCB6Mk-84" style="rounded=0;orthogonalLoop=1;jettySize=auto;html=1;endArrow=block;endFill=1;" edge="1" parent="1" source="4f5sG9eF8hFG8ZeCB6Mk-47" target="4f5sG9eF8hFG8ZeCB6Mk-78">
          <mxGeometry relative="1" as="geometry" />
        </mxCell>
        <mxCell id="4f5sG9eF8hFG8ZeCB6Mk-47" value="Recomenda Voluntários" style="ellipse;whiteSpace=wrap;html=1;" vertex="1" parent="1">
          <mxGeometry x="620" y="680" width="120" height="80" as="geometry" />
        </mxCell>
        <mxCell id="4f5sG9eF8hFG8ZeCB6Mk-49" style="orthogonalLoop=1;jettySize=auto;html=1;endArrow=block;endFill=1;rounded=0;strokeColor=default;shadow=0;startArrow=none;startFill=0;" edge="1" parent="1" target="4f5sG9eF8hFG8ZeCB6Mk-50" source="4f5sG9eF8hFG8ZeCB6Mk-11">
          <mxGeometry relative="1" as="geometry">
            <mxPoint x="850" y="195" as="sourcePoint" />
          </mxGeometry>
        </mxCell>
        <mxCell id="4f5sG9eF8hFG8ZeCB6Mk-50" value="Solicita Atendimento" style="ellipse;whiteSpace=wrap;html=1;" vertex="1" parent="1">
          <mxGeometry x="670" y="110" width="120" height="80" as="geometry" />
        </mxCell>
        <mxCell id="4f5sG9eF8hFG8ZeCB6Mk-51" style="orthogonalLoop=1;jettySize=auto;html=1;endArrow=block;endFill=1;rounded=0;strokeColor=default;shadow=0;" edge="1" parent="1" source="4f5sG9eF8hFG8ZeCB6Mk-15" target="4f5sG9eF8hFG8ZeCB6Mk-26">
          <mxGeometry relative="1" as="geometry">
            <mxPoint x="860" y="421.17647058823525" as="sourcePoint" />
            <mxPoint x="667" y="453" as="targetPoint" />
          </mxGeometry>
        </mxCell>
        <mxCell id="4f5sG9eF8hFG8ZeCB6Mk-53" style="orthogonalLoop=1;jettySize=auto;html=1;endArrow=none;endFill=0;rounded=0;strokeColor=default;shadow=0;startArrow=block;startFill=1;" edge="1" parent="1" source="4f5sG9eF8hFG8ZeCB6Mk-22" target="4f5sG9eF8hFG8ZeCB6Mk-5">
          <mxGeometry relative="1" as="geometry">
            <mxPoint x="403" y="420" as="sourcePoint" />
            <mxPoint x="234.22427033361237" y="412.87654621043816" as="targetPoint" />
          </mxGeometry>
        </mxCell>
        <mxCell id="4f5sG9eF8hFG8ZeCB6Mk-60" value="Define Capacidade e Necessidades" style="ellipse;whiteSpace=wrap;html=1;" vertex="1" parent="1">
          <mxGeometry x="370" y="310" width="120" height="80" as="geometry" />
        </mxCell>
        <mxCell id="4f5sG9eF8hFG8ZeCB6Mk-61" value="&amp;lt;&amp;lt;extend&amp;gt;&amp;gt;" style="rounded=0;orthogonalLoop=1;jettySize=auto;html=1;dashed=1;endArrow=none;endFill=0;startArrow=open;startFill=0;" edge="1" parent="1" source="4f5sG9eF8hFG8ZeCB6Mk-60" target="4f5sG9eF8hFG8ZeCB6Mk-109">
          <mxGeometry x="-0.0111" relative="1" as="geometry">
            <mxPoint x="447" y="590" as="targetPoint" />
            <mxPoint x="463" y="690" as="sourcePoint" />
            <mxPoint as="offset" />
          </mxGeometry>
        </mxCell>
        <mxCell id="4f5sG9eF8hFG8ZeCB6Mk-62" value="&amp;lt;&amp;lt;include&amp;gt;&amp;gt;" style="rounded=0;orthogonalLoop=1;jettySize=auto;html=1;dashed=1;endArrow=open;endFill=0;" edge="1" parent="1" source="4f5sG9eF8hFG8ZeCB6Mk-60" target="4f5sG9eF8hFG8ZeCB6Mk-34">
          <mxGeometry x="-0.0111" relative="1" as="geometry">
            <mxPoint x="397" y="578" as="targetPoint" />
            <mxPoint x="323" y="627" as="sourcePoint" />
            <mxPoint as="offset" />
          </mxGeometry>
        </mxCell>
        <mxCell id="4f5sG9eF8hFG8ZeCB6Mk-63" style="orthogonalLoop=1;jettySize=auto;html=1;endArrow=block;endFill=1;rounded=0;strokeColor=default;shadow=0;startArrow=none;startFill=0;" edge="1" parent="1" target="4f5sG9eF8hFG8ZeCB6Mk-64" source="4f5sG9eF8hFG8ZeCB6Mk-50">
          <mxGeometry relative="1" as="geometry">
            <mxPoint x="720" y="112" as="sourcePoint" />
          </mxGeometry>
        </mxCell>
        <mxCell id="4f5sG9eF8hFG8ZeCB6Mk-64" value="Realiza Triagem do Beneficíario" style="ellipse;whiteSpace=wrap;html=1;" vertex="1" parent="1">
          <mxGeometry x="550" y="160" width="120" height="80" as="geometry" />
        </mxCell>
        <mxCell id="4f5sG9eF8hFG8ZeCB6Mk-65" style="orthogonalLoop=1;jettySize=auto;html=1;endArrow=block;endFill=1;rounded=0;strokeColor=default;shadow=0;startArrow=none;startFill=0;" edge="1" parent="1" source="4f5sG9eF8hFG8ZeCB6Mk-15" target="4f5sG9eF8hFG8ZeCB6Mk-64">
          <mxGeometry relative="1" as="geometry">
            <mxPoint x="870" y="408" as="sourcePoint" />
            <mxPoint x="749" y="353" as="targetPoint" />
          </mxGeometry>
        </mxCell>
        <mxCell id="4f5sG9eF8hFG8ZeCB6Mk-67" style="orthogonalLoop=1;jettySize=auto;html=1;endArrow=block;endFill=1;rounded=0;strokeColor=default;shadow=0;" edge="1" parent="1" target="4f5sG9eF8hFG8ZeCB6Mk-68" source="4f5sG9eF8hFG8ZeCB6Mk-64">
          <mxGeometry relative="1" as="geometry">
            <mxPoint x="550.7706725935984" y="290.00261080277284" as="sourcePoint" />
          </mxGeometry>
        </mxCell>
        <mxCell id="4f5sG9eF8hFG8ZeCB6Mk-74" style="rounded=0;orthogonalLoop=1;jettySize=auto;html=1;endArrow=block;endFill=1;startArrow=block;startFill=1;" edge="1" parent="1" source="4f5sG9eF8hFG8ZeCB6Mk-68" target="4f5sG9eF8hFG8ZeCB6Mk-1">
          <mxGeometry relative="1" as="geometry" />
        </mxCell>
        <mxCell id="4f5sG9eF8hFG8ZeCB6Mk-68" value="Busca Auxilio" style="ellipse;whiteSpace=wrap;html=1;" vertex="1" parent="1">
          <mxGeometry x="270" y="20" width="120" height="80" as="geometry" />
        </mxCell>
        <mxCell id="4f5sG9eF8hFG8ZeCB6Mk-69" style="orthogonalLoop=1;jettySize=auto;html=1;endArrow=block;endFill=1;rounded=0;strokeColor=default;shadow=0;" edge="1" parent="1" target="4f5sG9eF8hFG8ZeCB6Mk-70" source="4f5sG9eF8hFG8ZeCB6Mk-72">
          <mxGeometry relative="1" as="geometry">
            <mxPoint x="880" y="436" as="sourcePoint" />
          </mxGeometry>
        </mxCell>
        <mxCell id="4f5sG9eF8hFG8ZeCB6Mk-70" value="Encaminha para o Atendimento" style="ellipse;whiteSpace=wrap;html=1;" vertex="1" parent="1">
          <mxGeometry x="640" y="20" width="120" height="80" as="geometry" />
        </mxCell>
        <mxCell id="4f5sG9eF8hFG8ZeCB6Mk-71" style="orthogonalLoop=1;jettySize=auto;html=1;endArrow=block;endFill=1;rounded=0;strokeColor=default;shadow=0;" edge="1" parent="1" target="4f5sG9eF8hFG8ZeCB6Mk-72" source="4f5sG9eF8hFG8ZeCB6Mk-68">
          <mxGeometry relative="1" as="geometry">
            <mxPoint x="890" y="446" as="sourcePoint" />
          </mxGeometry>
        </mxCell>
        <mxCell id="4f5sG9eF8hFG8ZeCB6Mk-72" value="Planeja Ações de Atendimento" style="ellipse;whiteSpace=wrap;html=1;" vertex="1" parent="1">
          <mxGeometry x="440" y="20" width="120" height="80" as="geometry" />
        </mxCell>
        <mxCell id="4f5sG9eF8hFG8ZeCB6Mk-80" style="edgeStyle=orthogonalEdgeStyle;rounded=0;orthogonalLoop=1;jettySize=auto;html=1;elbow=vertical;endArrow=none;endFill=0;startArrow=block;startFill=1;" edge="1" parent="1" source="4f5sG9eF8hFG8ZeCB6Mk-78" target="4f5sG9eF8hFG8ZeCB6Mk-5">
          <mxGeometry relative="1" as="geometry" />
        </mxCell>
        <mxCell id="4f5sG9eF8hFG8ZeCB6Mk-78" value="Avalia Convite de Campanha" style="ellipse;whiteSpace=wrap;html=1;" vertex="1" parent="1">
          <mxGeometry x="390" y="690" width="120" height="80" as="geometry" />
        </mxCell>
        <mxCell id="4f5sG9eF8hFG8ZeCB6Mk-85" value="&amp;lt;&amp;lt;extend&amp;gt;&amp;gt;" style="rounded=0;orthogonalLoop=1;jettySize=auto;html=1;dashed=1;endArrow=none;endFill=0;startArrow=open;startFill=0;" edge="1" parent="1" source="4f5sG9eF8hFG8ZeCB6Mk-86" target="4f5sG9eF8hFG8ZeCB6Mk-78">
          <mxGeometry relative="1" as="geometry">
            <mxPoint x="285" y="935" as="targetPoint" />
          </mxGeometry>
        </mxCell>
        <mxCell id="4f5sG9eF8hFG8ZeCB6Mk-86" value="Realiza Inscrição na Campanha&amp;nbsp;" style="ellipse;whiteSpace=wrap;html=1;" vertex="1" parent="1">
          <mxGeometry x="550" y="830" width="120" height="80" as="geometry" />
        </mxCell>
        <mxCell id="4f5sG9eF8hFG8ZeCB6Mk-90" style="orthogonalLoop=1;jettySize=auto;html=1;endArrow=block;endFill=1;rounded=0;strokeColor=default;shadow=0;" edge="1" parent="1" target="4f5sG9eF8hFG8ZeCB6Mk-91" source="4f5sG9eF8hFG8ZeCB6Mk-24">
          <mxGeometry relative="1" as="geometry">
            <mxPoint x="298.80740990624116" y="60.00012894580354" as="sourcePoint" />
          </mxGeometry>
        </mxCell>
        <mxCell id="4f5sG9eF8hFG8ZeCB6Mk-91" value="Divulga Perfil de Voluntários" style="ellipse;whiteSpace=wrap;html=1;" vertex="1" parent="1">
          <mxGeometry x="160" y="870" width="120" height="80" as="geometry" />
        </mxCell>
        <mxCell id="4f5sG9eF8hFG8ZeCB6Mk-98" style="rounded=0;orthogonalLoop=1;jettySize=auto;html=1;entryX=1;entryY=1;entryDx=0;entryDy=0;endArrow=none;endFill=0;startArrow=block;startFill=1;" edge="1" parent="1" source="4f5sG9eF8hFG8ZeCB6Mk-97" target="4f5sG9eF8hFG8ZeCB6Mk-91">
          <mxGeometry relative="1" as="geometry" />
        </mxCell>
        <mxCell id="4f5sG9eF8hFG8ZeCB6Mk-97" value="Captação de Voluntários" style="ellipse;whiteSpace=wrap;html=1;" vertex="1" parent="1">
          <mxGeometry x="370" y="910" width="120" height="80" as="geometry" />
        </mxCell>
        <mxCell id="4f5sG9eF8hFG8ZeCB6Mk-99" value="&amp;lt;&amp;lt;include&amp;gt;&amp;gt;" style="rounded=0;orthogonalLoop=1;jettySize=auto;html=1;dashed=1;endArrow=none;endFill=0;startArrow=open;startFill=0;" edge="1" parent="1" source="4f5sG9eF8hFG8ZeCB6Mk-97" target="4f5sG9eF8hFG8ZeCB6Mk-86">
          <mxGeometry relative="1" as="geometry">
            <mxPoint x="582" y="731" as="targetPoint" />
            <mxPoint x="498" y="799" as="sourcePoint" />
          </mxGeometry>
        </mxCell>
        <mxCell id="4f5sG9eF8hFG8ZeCB6Mk-104" value="&amp;lt;&amp;lt;extend&amp;gt;&amp;gt;" style="rounded=0;orthogonalLoop=1;jettySize=auto;html=1;dashed=1;endArrow=none;endFill=0;startArrow=open;startFill=0;" edge="1" parent="1" source="4f5sG9eF8hFG8ZeCB6Mk-29" target="4f5sG9eF8hFG8ZeCB6Mk-41">
          <mxGeometry relative="1" as="geometry">
            <mxPoint x="609" y="559" as="targetPoint" />
            <mxPoint x="521" y="621" as="sourcePoint" />
          </mxGeometry>
        </mxCell>
        <mxCell id="4f5sG9eF8hFG8ZeCB6Mk-109" value="Solicita Afiliação" style="ellipse;whiteSpace=wrap;html=1;" vertex="1" parent="1">
          <mxGeometry x="280" y="200" width="120" height="80" as="geometry" />
        </mxCell>
        <mxCell id="4f5sG9eF8hFG8ZeCB6Mk-116" style="rounded=0;orthogonalLoop=1;jettySize=auto;html=1;endArrow=block;endFill=1;startArrow=block;startFill=1;edgeStyle=orthogonalEdgeStyle;" edge="1" parent="1" source="4f5sG9eF8hFG8ZeCB6Mk-70" target="4f5sG9eF8hFG8ZeCB6Mk-1">
          <mxGeometry relative="1" as="geometry">
            <mxPoint x="281" y="109" as="sourcePoint" />
            <mxPoint x="90" y="138" as="targetPoint" />
            <Array as="points">
              <mxPoint x="700" />
              <mxPoint x="65" />
            </Array>
          </mxGeometry>
        </mxCell>
        <mxCell id="4f5sG9eF8hFG8ZeCB6Mk-118" value="Busca beneficiários" style="ellipse;whiteSpace=wrap;html=1;" vertex="1" parent="1">
          <mxGeometry x="640" y="360" width="120" height="80" as="geometry" />
        </mxCell>
        <mxCell id="4f5sG9eF8hFG8ZeCB6Mk-119" style="orthogonalLoop=1;jettySize=auto;html=1;endArrow=block;endFill=1;rounded=0;strokeColor=default;shadow=0;" edge="1" parent="1" source="4f5sG9eF8hFG8ZeCB6Mk-118" target="4f5sG9eF8hFG8ZeCB6Mk-121">
          <mxGeometry relative="1" as="geometry">
            <mxPoint x="870" y="425.5882352941177" as="sourcePoint" />
          </mxGeometry>
        </mxCell>
        <mxCell id="4f5sG9eF8hFG8ZeCB6Mk-120" style="rounded=0;orthogonalLoop=1;jettySize=auto;html=1;endArrow=open;endFill=0;" edge="1" parent="1" source="4f5sG9eF8hFG8ZeCB6Mk-121" target="4f5sG9eF8hFG8ZeCB6Mk-122">
          <mxGeometry relative="1" as="geometry" />
        </mxCell>
        <mxCell id="4f5sG9eF8hFG8ZeCB6Mk-121" value="Triagem dos Beneficíarios" style="ellipse;whiteSpace=wrap;html=1;" vertex="1" parent="1">
          <mxGeometry x="520" y="280" width="120" height="80" as="geometry" />
        </mxCell>
        <mxCell id="4f5sG9eF8hFG8ZeCB6Mk-122" value="Recomendação ONG" style="ellipse;whiteSpace=wrap;html=1;" vertex="1" parent="1">
          <mxGeometry x="410" y="165" width="120" height="80" as="geometry" />
        </mxCell>
        <mxCell id="4f5sG9eF8hFG8ZeCB6Mk-123" style="orthogonalLoop=1;jettySize=auto;html=1;endArrow=block;endFill=1;rounded=0;strokeColor=default;shadow=0;" edge="1" parent="1" source="4f5sG9eF8hFG8ZeCB6Mk-122" target="4f5sG9eF8hFG8ZeCB6Mk-1">
          <mxGeometry relative="1" as="geometry">
            <mxPoint x="250" y="122" as="sourcePoint" />
            <mxPoint x="454" y="178" as="targetPoint" />
          </mxGeometry>
        </mxCell>
        <mxCell id="4f5sG9eF8hFG8ZeCB6Mk-124" style="orthogonalLoop=1;jettySize=auto;html=1;endArrow=block;endFill=1;rounded=0;strokeColor=default;shadow=0;startArrow=none;startFill=0;" edge="1" parent="1" source="4f5sG9eF8hFG8ZeCB6Mk-15" target="4f5sG9eF8hFG8ZeCB6Mk-118">
          <mxGeometry relative="1" as="geometry">
            <mxPoint x="890" y="418" as="sourcePoint" />
            <mxPoint x="659" y="240" as="targetPoint" />
          </mxGeometry>
        </mxCell>
      </root>
    </mxGraphModel>
  </diagram>
</mxfile>
